<?xml version="1.0" ?><!DOCTYPE svg  PUBLIC '-//W3C//DTD SVG 1.1//EN'  'http://www.w3.org/Graphics/SVG/1.1/DTD/svg11.dtd'><svg enable-background="new 0 0 512 512" height="512px" id="Layer_1" version="1.1" viewBox="0 0 512 512" width="512px" xml:space="preserve" xmlns="http://www.w3.org/2000/svg" xmlns:xlink="http://www.w3.org/1999/xlink"><g><polygon clip-rule="evenodd" fill="#EAE6D2" fill-rule="evenodd" points="0,0 435.199,0 512,76.799 512,512 76.799,512 0,435.199     "/><polygon clip-rule="evenodd" fill="#FFFCF0" fill-rule="evenodd" points="435.199,0 512,76.799 435.199,76.799  "/><polygon clip-rule="evenodd" fill="#BEB795" fill-rule="evenodd" points="435.199,76.799 512,153.602 512,76.799  "/><polygon clip-rule="evenodd" fill="#FFFCF0" fill-rule="evenodd" points="76.799,512 0,435.199 76.799,435.199  "/><polygon clip-rule="evenodd" fill="#BEB795" fill-rule="evenodd" points="153.598,512 76.799,435.199 76.799,512  "/><path clip-rule="evenodd" d="M367.266,310.426c0,39.906-9.07,69.543-27.207,89.297   c-10.488,11.492-24.391,19.551-41.73,24.383c-9.879,2.625-20.965,4.441-33.258,5.047c-3.426,0.203-6.859,0.203-10.486,0.203   c-11.285,0-22.775-1.211-34.465-3.832c-11.691-2.418-22.375-6.449-32.053-12.094c-4.633-2.82-9.068-6.047-12.9-9.875L283.414,512   h64.699h38.301H512V233.023L367.266,88.289V310.426z M222.738,290.469c8.67,5.637,19.756,8.266,32.855,8.266   c13.105,0,24.391-2.629,33.461-8.266c9.273-5.438,16.734-12.695,22.379-21.563c5.641-8.871,9.875-18.953,12.492-30.242   c2.625-11.285,4.035-22.572,4.035-33.865c0-10.68-1.41-21.162-3.832-31.443c-2.414-10.281-6.449-19.754-11.891-28.02   c-5.645-8.266-12.703-14.916-21.363-19.955c-8.871-5.039-19.555-7.455-32.055-7.455c-12.902,0-23.781,2.416-32.857,7.254   c-9.068,4.84-16.529,11.287-22.375,19.551c-5.645,8.061-9.875,17.537-12.695,28.221c-2.621,10.48-3.832,21.771-3.832,33.26   c0,10.883,1.006,21.975,3.223,32.857c2.221,11.09,5.85,20.967,11.291,29.838C206.814,277.773,213.869,285.031,222.738,290.469   L222.738,290.469z M229.793,393.68l-35.68-35.684c0.205,7.262,2.42,13.309,6.654,18.34c4.23,5.035,9.471,9.078,15.521,12.102   C220.523,390.648,225.158,392.465,229.793,393.68L229.793,393.68z M312.844,371.906c6.047-8.063,10.273-17.738,12.898-29.031   c2.621-11.285,4.035-23.578,4.035-37.09v-15.922h-1.012c-6.852,14.918-17.332,26.004-31.242,33.055   c-13.91,7.059-28.625,10.688-44.344,10.688c-18.141,0-33.865-3.43-47.371-9.879c-8.67-4.23-16.33-9.273-22.982-15.313   l88.092,88.082c7.25-1.004,13.699-3.02,19.348-5.848C299.332,386.016,307,379.773,312.844,371.906L312.844,371.906z" fill="#BEB795" fill-rule="evenodd"/><path d="M367.266,310.426V88.289h-37.488v34.871h-0.41c-7.254-13.504-17.328-23.584-30.234-30.438   c-12.695-6.65-26.805-10.076-42.125-10.076c-20.965,0-38.705,4.033-53.215,12.096c-14.314,7.859-26.008,18.141-34.672,30.438   c-8.871,12.295-15.117,26.205-18.748,41.32c-3.828,15.32-5.643,30.035-5.643,44.348c0,16.73,2.217,32.453,6.855,47.371   c4.43,14.715,11.285,27.816,20.357,38.906c9.07,11.082,20.355,19.953,33.865,26.602c13.506,6.449,29.23,9.879,47.371,9.879   c15.719,0,30.434-3.629,44.344-10.688c13.91-7.051,24.391-18.137,31.242-33.055h1.012v15.922c0,13.512-1.414,25.805-4.035,37.09   c-2.625,11.293-6.852,20.969-12.898,29.031c-5.844,7.867-13.512,14.109-22.578,18.742c-9.066,4.441-20.16,6.863-33.258,6.863   c-6.654,0-13.51-0.809-20.764-2.223c-7.055-1.414-13.91-3.629-19.955-6.852c-6.051-3.023-11.291-7.066-15.521-12.102   c-4.234-5.031-6.449-11.078-6.654-18.34h-40.109c0.805,13.102,4.229,24.184,10.479,33.262c6.248,9.066,14.113,16.523,23.584,22.172   c9.678,5.645,20.361,9.676,32.053,12.094c11.689,2.621,23.18,3.832,34.465,3.832c38.904,0,67.33-9.871,85.475-29.633   C358.195,379.969,367.266,350.332,367.266,310.426L367.266,310.426z M255.594,298.734c-13.1,0-24.186-2.629-32.855-8.266   c-8.869-5.438-15.924-12.695-21.164-21.563c-5.441-8.871-9.07-18.748-11.291-29.838c-2.217-10.883-3.223-21.975-3.223-32.857   c0-11.488,1.211-22.779,3.832-33.26c2.82-10.684,7.051-20.16,12.695-28.221c5.846-8.264,13.307-14.711,22.375-19.551   c9.076-4.838,19.955-7.254,32.857-7.254c12.5,0,23.184,2.416,32.055,7.455c8.66,5.039,15.719,11.689,21.363,19.955   c5.441,8.266,9.477,17.738,11.891,28.02c2.422,10.281,3.832,20.764,3.832,31.443c0,11.293-1.41,22.58-4.035,33.865   c-2.617,11.289-6.852,21.371-12.492,30.242c-5.645,8.867-13.105,16.125-22.379,21.563   C279.984,296.105,268.699,298.734,255.594,298.734L255.594,298.734z" fill="#7D5024"/></g></svg>