<?xml version="1.0" ?><!DOCTYPE svg  PUBLIC '-//W3C//DTD SVG 1.1//EN'  'http://www.w3.org/Graphics/SVG/1.1/DTD/svg11.dtd'><svg enable-background="new 0 0 512 512" id="Layer_1" version="1.1" viewBox="0 0 512 512" xml:space="preserve" xmlns="http://www.w3.org/2000/svg" xmlns:xlink="http://www.w3.org/1999/xlink"><g><path d="M261,505.8c-50.7,0-101.3,0-152,0c-1.7,0-3.3-0.1-5,0c-4.4,0.3-5.9-1.5-5.9-6.2c0.2-60.5,0.1-121,0.1-181.5   c0-4.2,0.3-8.4-0.1-12.5c-0.3-3.9,1.3-4.8,4.9-4.7c7.8,0.2,15.7,0.4,23.5,0c4.9-0.3,5.7,1.7,5.6,6c-0.1,43.7-0.1,87.3-0.1,131   c0,9.5,0.2,19-0.1,28.5c-0.2,4.5,1.1,5.9,5.8,5.9c42.7-0.2,85.3-0.1,128-0.1c39,0,78,0,117,0c6.4,0,6.4,0,6.4-6.6   c0-53,0-106-0.1-159c0-4.2,0.8-5.9,5.4-5.7c7.6,0.4,15.3,0.4,23,0c4.5-0.2,5.5,1.2,5.5,5.6c-0.2,48.2-0.1,96.3-0.1,144.5   c0,16.3-0.2,32.7,0.1,49c0.1,4.7-1.4,5.9-6,5.9C364.9,505.7,312.9,505.8,261,505.8z" fill="#A8A8A8"/><path d="M414,18.8c-0.5-2.5,1-3.3,3.3-3.7c11.1-1.9,22.3-3.7,33.3-5.8c4.3-0.8,4.7,1.7,5.2,4.6c3,17.3,6,34.7,9,52   c7.3,41.7,14.5,83.4,21.8,125.1c1.9,10.8,1.9,10.9-9,12.8c-8.8,1.5-17.8,2.6-26.5,4.5c-3.6,0.8-4.4-0.5-4.9-3.3   c-2.7-15.9-5.5-31.8-8.2-47.6c-4.8-27.8-9.6-55.6-14.5-83.4c-3.1-17.5-6.2-35-9.3-52.5C414.1,20.6,414.1,19.8,414,18.8z" fill="#A8A8A8"/><path d="M328.5,50.2c2.2,0.3,2.6,2.2,3.5,3.5c16.4,24.1,32.8,48.1,49.2,72.2c18.5,27.1,36.9,54.2,55.5,81.2   c2.3,3.4,2.2,5.1-1.4,7.4c-9.2,6-18.3,12.2-27.2,18.6c-3,2.1-4.2,0.9-5.8-1.5c-12.5-18.5-25-36.9-37.6-55.4   c-22.3-32.7-44.6-65.5-67.2-98.1c-3.1-4.4-2.2-6.1,1.9-8.6c8.7-5.5,17.1-11.5,25.7-17.3C326.3,51.5,327.5,50.8,328.5,50.2z" fill="#A7A7A7"/><path d="M171.7,325.9c20.9,2,41.7,4,62.6,5.9c15.4,1.4,30.8,2.7,46.2,4.2c20.2,1.9,40.4,3.9,60.5,5.7   c5.5,0.5,10.9,0.9,16.4,1.3c2.1,0.1,3.3,0.6,3,3.3c-1.2,11.7-2.4,23.5-3.3,35.3c-0.2,3-1.5,3.6-4.1,3.4c-19.5-1.9-39-3.9-58.5-5.7   c-16.4-1.5-32.8-2.8-49.2-4.3c-20-1.8-40-3.8-60-5.6c-6-0.5-11.9-1-17.9-1.4c-3.9-0.3-6-1.4-5.5-6.1c1.3-10.9,2.2-21.8,3.1-32.8   C165.5,323.6,169.4,326.8,171.7,325.9z" fill="#A7A7A7"/><path d="M397.7,241.5c-0.5,0.9-1,2-1.6,3c-5.6,9.5-11.2,18.9-16.7,28.4c-1.5,2.6-2.8,4-6.2,2   c-53.7-31.8-107.4-63.5-161.2-95.1c-3.5-2-3.7-3.4-1.6-6.7c5.7-9,11-18.2,16.3-27.5c1.9-3.4,3.5-4,7-1.9   c24.1,14.4,48.4,28.6,72.6,42.9c29.5,17.4,59,34.8,88.5,52.3C395.9,239.5,397.4,239.8,397.7,241.5z" fill="#A7A7A7"/><path d="M257.7,439c-30.8,0-61.6-0.1-92.4,0.1c-4,0-5.5-0.9-5.4-5.2c0.3-10.6,0.2-21.3,0-32   c-0.1-3.6,0.7-4.9,4.6-4.9c62.3,0.1,124.6,0.1,186.8,0c3.4,0,4.7,0.8,4.6,4.4c-0.2,11-0.2,22,0,33c0.1,3.9-1.4,4.7-4.9,4.6   C320,438.9,288.8,439,257.7,439C257.7,439,257.7,439,257.7,439z" fill="#A7A7A7"/><path d="M186,238.4c14.2,3.8,27.8,7.3,41.5,11c46.5,12.5,93,25.1,139.6,37.6c6.7,1.8,6.6,1.7,4.8,8.1   c-2.6,9.4-5.6,18.8-7.6,28.4c-1,5.1-2.8,5.5-7.3,4.3c-48.6-13.2-97.2-26.2-145.8-39.3c-11.2-3-22.4-6.2-33.7-9.1   c-3.1-0.8-4.1-1.9-3.2-5.1c3.1-11,5.9-22.2,8.9-33.2C183.6,239.5,184,237.6,186,238.4z" fill="#A7A7A7"/></g></svg>