<svg viewBox="0 0 64 66" fill="#fff" fill-rule="evenodd" stroke="#000" stroke-linecap="round" stroke-linejoin="round" width="300" height="300" font-family="Roboto" font-size="14px" text-anchor="middle" xmlns="http://www.w3.org/2000/svg" xmlns:xlink="http://www.w3.org/1999/xlink"><defs xmlns="http://www.w3.org/1999/xhtml"><style type="text/css"></style></defs><use xlink:href="#A" x="1" y="1"/><symbol id="A" overflow="visible"><g stroke="none" fill-rule="nonzero"><path d="M36.576 42.34l-5.6 3.886V64l12.06-6.954 18.892-46.26v-5.86L47.856 13.1v4.944zM14.072 13.112v4.944l11.252 25.348 5.63-2.8V33.56l-8.44-19.694V8.292l-.06-.034z" fill="#1159cc"/><path d="M39.396 8.234v5.63l-8.44 19.694v6.6l-5.63 3.266-11.254-25.368v-4.952l8.44-4.86L8.44 0 0 4.928v6.032L19 57.1 30.954 64V46.672l5.6-3.266-.066-.04L47.834 18.06v-4.956l14.072-8.176L53.466 0 39.4 8.234z" fill="#127eff"/></g></symbol></svg>