<svg xmlns="http://www.w3.org/2000/svg" viewBox="0 0 426 426">
  <defs>
    <linearGradient id="a" x1="0%" y1="0%" y2="100%">
      <stop offset="0%" stop-color="#2196F3"/>
      <stop offset="100%" stop-color="#2962FF"/>
    </linearGradient>
  </defs>
  <path fill="url(#a)" fillRule="evenodd" d="M68.159999 0h289.680003C395.483729 0 426 30.51627 426 68.159999v289.680003C426 395.483729 395.483729 426 357.840002 426H68.159999C30.51627 426 0 395.483729 0 357.840002V68.159999C0 30.51627 30.51627 0 68.159999 0zm251.605164 384.079094l-.070162-.014032c24.231285-.401418 43.939237-19.641417 44.922724-43.856063.983487-24.214646-17.099245-44.989529-41.218164-47.354708L236.11787 138.750185c-12.769508-22.928985-37.424481-21.932682-46.307007 10.608514-7.63364 30.815208-5.6691 59.848298-7.886224 94.929364-.01445.230532-.175684.425549-.399391.483074-.223707.057524-.459015-.035524-.582879-.23049l-77.922063-155.33896c6.359588-4.994288 10.082203-12.625648 10.103347-20.71186 0-14.298557-11.59127-25.889827-25.889826-25.889827C72.93527 42.6 61.344 54.19127 61.344 68.489827c0 14.298556 11.59127 25.889826 25.889827 25.889826 1.22082 0 2.217123-.252584 3.199393-.252584 32.79378 84.32085 69.292121 182.702191 82.35631 205.392624 8.882526 21.694131 39.206599 14.790178 39.950317-8.629942l3.199394-123.036314c0-.743718.982269-.743718 1.234853-.252583l62.584621 148.912107c-3.72232 6.713088-5.655243 14.270817-5.61297 21.946715.030927 25.182088 20.43733 45.588491 45.619418 45.619418z"/>
</svg>
